Battleship 2012 CAM READNFO XViD - INSPiRAL



IMDB:
 
http://www.imdb.com/title/tt1440129/



STATS:



Video

ID                               : 0

Format                           : MPEG-4 Visual

Format profile                   : Advanced Simple@L5

Format settings, BVOP            : 2

Format settings, QPel            : No

Format settings, GMC             : No warppoints

Format settings, Matrix          : Default (MPEG)

Muxing mode                      : Packed bitstream

Codec ID                         : XVID

Codec ID/Hint                    : XviD

Duration                         : 1h 57mn

Bit rate                         : 1 597 Kbps

Width                            : 640 pixels

Height                           : 272 pixels

Display aspect ratio             : 2.35:1

Frame rate                       : 25.000 fps

Color space                      : YUV

Chroma subsampling               : 4:2:0

Bit depth                        : 8 bits

Scan type                        : Progressive

Compression mode                 : Lossy

Bits/(Pixel*Frame)               : 0.367

Stream size                      : 1.31 GiB (92%)

Writing library                  : XviD 64



Audio

ID                               : 1

Format                           : MPEG Audio

Format version                   : Version 1

Format profile                   : Layer 3

Mode                             : Joint stereo

Mode extension                   : MS Stereo

Codec ID                         : 55

Codec ID/Hint                    : MP3

Duration                         : 1h 57mn

Bit rate mode                    : Constant

Bit rate                         : 128 Kbps

Channel(s)                       : 2 channels

Sampling rate                    : 44.1 KHz

Compression mode                 : Lossy

Stream size                      : 108 MiB (7%)

Alignment                        : Split accross interleaves

Interleave, duration             : 40 ms (1.00 video frame)

Interleave, preload duration     : 500 ms